<svg id="visual" viewBox="0 0 900 450" width="900" height="450" xmlns="http://www.w3.org/2000/svg" xmlns:xlink="http://www.w3.org/1999/xlink" version="1.1"><rect x="0" y="0" width="900" height="450" fill="#001220"></rect><defs><linearGradient id="grad1_0" x1="50%" y1="0%" x2="100%" y2="100%"><stop offset="10%" stop-color="#3b82f6" stop-opacity="1"></stop><stop offset="90%" stop-color="#3b82f6" stop-opacity="1"></stop></linearGradient></defs><defs><linearGradient id="grad1_1" x1="50%" y1="0%" x2="100%" y2="100%"><stop offset="10%" stop-color="#3b82f6" stop-opacity="1"></stop><stop offset="90%" stop-color="#001220" stop-opacity="1"></stop></linearGradient></defs><defs><linearGradient id="grad2_0" x1="0%" y1="0%" x2="50%" y2="100%"><stop offset="10%" stop-color="#3b82f6" stop-opacity="1"></stop><stop offset="90%" stop-color="#3b82f6" stop-opacity="1"></stop></linearGradient></defs><defs><linearGradient id="grad2_1" x1="0%" y1="0%" x2="50%" y2="100%"><stop offset="10%" stop-color="#001220" stop-opacity="1"></stop><stop offset="90%" stop-color="#3b82f6" stop-opacity="1"></stop></linearGradient></defs><g transform="translate(900, 0)"><path d="M0 405C-57.1 403.2 -114.1 401.5 -155 374.2C-195.9 346.9 -220.6 294.1 -254.6 254.6C-288.6 215 -331.8 188.7 -358.5 148.5C-385.1 108.3 -395 54.1 -405 0L0 0Z" fill="#004984"></path><path d="M0 202.5C-28.5 201.6 -57.1 200.7 -77.5 187.1C-97.9 173.4 -110.3 147.1 -127.3 127.3C-144.3 107.5 -165.9 94.4 -179.2 74.2C-192.5 54.1 -197.5 27.1 -202.5 0L0 0Z" fill="#3b82f6"></path></g><g transform="translate(0, 450)"><path d="M0 -405C59.5 -405.9 119 -406.8 155 -374.2C191 -341.6 203.5 -275.5 234.8 -234.8C266 -194.1 315.9 -178.8 347.4 -143.9C378.9 -109 391.9 -54.5 405 0L0 0Z" fill="#004984"></path><path d="M0 -202.5C29.7 -202.9 59.5 -203.4 77.5 -187.1C95.5 -170.8 101.8 -137.7 117.4 -117.4C133 -97 157.9 -89.4 173.7 -71.9C189.4 -54.5 196 -27.2 202.5 0L0 0Z" fill="#3b82f6"></path></g></svg>